HIERARCHY
ROOT hip
{
  OFFSET 0 0 0
  CHANNELS 6 Xposition Yposition Zposition Zrotation Yrotation Xrotation
  JOINT abdomen
  {
    OFFSET 0 20.6881 -0.73152
    CHANNELS 3 Zrotation Xrotation Yrotation
    JOINT chest
    {
      OFFSET 0 11.7043 -0.48768
      CHANNELS 3 Zrotation Xrotation Yrotation
      JOINT neck
      {
        OFFSET 0 22.1894 -2.19456
        CHANNELS 3 Zrotation Xrotation Yrotation
        JOINT head
        {
          OFFSET -0.24384 7.07133 1.2192
          CHANNELS 3 Zrotation Xrotation Yrotation
          JOINT leftEye
          {
            OFFSET 4.14528 8.04674 8.04672
            CHANNELS 3 Zrotation Xrotation Yrotation
            End Site
            {
              OFFSET 1 0 0
            }
          }
          JOINT rightEye
          {
            OFFSET -3.6576 8.04674 8.04672
            CHANNELS 3 Zrotation Xrotation Yrotation
            End Site
            {
              OFFSET 1 0 0
            }
          }
        }
      }
      JOINT rCollar
      {
        OFFSET -2.68224 19.2634 -4.8768
        CHANNELS 3 Zrotation Xrotation Yrotation
        JOINT rShldr
        {
          OFFSET -8.77824 -1.95073 1.46304
          CHANNELS 3 Zrotation Xrotation Yrotation
          JOINT rForeArm
          {
            OFFSET -28.1742 -1.7115 0.48768
            CHANNELS 3 Zrotation Xrotation Yrotation
            JOINT rHand
            {
              OFFSET -22.5879 0.773209 7.07136
              CHANNELS 3 Zrotation Xrotation Yrotation
              JOINT rThumb1
              {
                OFFSET -1.2192 -0.487915 3.41376
                CHANNELS 3 Zrotation Xrotation Yrotation
                JOINT rThumb2
                {
                  OFFSET -3.37035 -0.52449 3.41376
                  CHANNELS 3 Zrotation Xrotation Yrotation
                  End Site
                  {
                    OFFSET -1.78271 -1.18214 1.43049
                  }
                }
              }
              JOINT rIndex1
              {
                OFFSET -7.75947 0.938293 5.60832
                CHANNELS 3 Zrotation Xrotation Yrotation
                JOINT rIndex2
                {
                  OFFSET -2.54057 -0.884171 1.56538
                  CHANNELS 3 Zrotation Xrotation Yrotation
                  End Site
                  {
                    OFFSET -1.62519 -0.234802 1.16502
                  }
                }
              }
              JOINT rMid1
              {
                OFFSET -8.24714 1.18213 3.41376
                CHANNELS 3 Zrotation Xrotation Yrotation
                JOINT rMid2
                {
                  OFFSET -3.10165 -0.590103 1.0647
                  CHANNELS 3 Zrotation Xrotation Yrotation
                  End Site
                  {
                    OFFSET -2.48547 -0.328903 0.83742
                  }
                }
              }
              JOINT rRing1
              {
                OFFSET -8.82822 0.546677 1.51678
                CHANNELS 3 Zrotation Xrotation Yrotation
                JOINT rRing2
                {
                  OFFSET -2.60934 -0.819778 -0.0198488
                  CHANNELS 3 Zrotation Xrotation Yrotation
                  End Site
                  {
                    OFFSET -2.33842 -0.294052 0.168128
                  }
                }
              }
              JOINT rPinky1
              {
                OFFSET -8.27202 -0.0477905 -0.4584
                CHANNELS 3 Zrotation Xrotation Yrotation
                JOINT rPinky2
                {
                  OFFSET -1.82734 -0.647385 -0.700984
                  CHANNELS 3 Zrotation Xrotation Yrotation
                  End Site
                  {
                    OFFSET -1.69225 -0.51767 -0.607171
                  }
                }
              }
            }
          }
        }
      }
      JOINT lCollar
      {
        OFFSET 2.68224 19.2634 -4.8768
        CHANNELS 3 Zrotation Xrotation Yrotation
        JOINT lShldr
        {
          OFFSET 8.77824 -1.95073 1.46304
          CHANNELS 3 Zrotation Xrotation Yrotation
          JOINT lForeArm
          {
            OFFSET 28.1742 -1.7115 0.48768
            CHANNELS 3 Zrotation Xrotation Yrotation
            JOINT lHand
            {
              OFFSET 22.5879 0.773209 7.07136
              CHANNELS 3 Zrotation Xrotation Yrotation
              JOINT lThumb1
              {
                OFFSET 1.2192 -0.487915 3.41376
                CHANNELS 3 Zrotation Xrotation Yrotation
                JOINT lThumb2
                {
                  OFFSET 3.37035 -0.52449 3.41376
                  CHANNELS 3 Zrotation Xrotation Yrotation
                  End Site
                  {
                    OFFSET 1.78271 -1.18214 1.43049
                  }
                }
              }
              JOINT lIndex1
              {
                OFFSET 7.75947 0.938293 5.60832
                CHANNELS 3 Zrotation Xrotation Yrotation
                JOINT lIndex2
                {
                  OFFSET 2.54057 -0.884171 1.56538
                  CHANNELS 3 Zrotation Xrotation Yrotation
                  End Site
                  {
                    OFFSET 1.62519 -0.234802 1.16502
                  }
                }
              }
              JOINT lMid1
              {
                OFFSET 8.24714 1.18213 3.41376
                CHANNELS 3 Zrotation Xrotation Yrotation
                JOINT lMid2
                {
                  OFFSET 3.10165 -0.590103 1.0647
                  CHANNELS 3 Zrotation Xrotation Yrotation
                  End Site
                  {
                    OFFSET 2.48547 -0.328903 0.83742
                  }
                }
              }
              JOINT lRing1
              {
                OFFSET 8.82822 0.546677 1.51678
                CHANNELS 3 Zrotation Xrotation Yrotation
                JOINT lRing2
                {
                  OFFSET 2.60934 -0.819778 -0.0198488
                  CHANNELS 3 Zrotation Xrotation Yrotation
                  End Site
                  {
                    OFFSET 2.33842 -0.294052 0.168128
                  }
                }
              }
              JOINT lPinky1
              {
                OFFSET 8.27202 -0.0477905 -0.4584
                CHANNELS 3 Zrotation Xrotation Yrotation
                JOINT lPinky2
                {
                  OFFSET 1.82734 -0.647385 -0.700984
                  CHANNELS 3 Zrotation Xrotation Yrotation
                  End Site
                  {
                    OFFSET 1.69225 -0.51767 -0.607171
                  }
                }
              }
            }
          }
        }
      }
    }
  }
  JOINT rButtock
  {
    OFFSET -8.77824 4.35084 1.2192
    CHANNELS 3 Zrotation Xrotation Yrotation
    JOINT rThigh
    {
      OFFSET 0 -1.70687 -2.19456
      CHANNELS 3 Zrotation Xrotation Yrotation
      JOINT rShin
      {
        OFFSET 0 -36.8199 0.73152
        CHANNELS 3 Zrotation Xrotation Yrotation
        JOINT rFoot
        {
          OFFSET 0.73152 -45.1104 -5.12064
          CHANNELS 3 Zrotation Xrotation Yrotation
          End Site
          {
            OFFSET -1.1221 -3.69964 12.103
          }
        }
      }
    }
  }
  JOINT lButtock
  {
    OFFSET 8.77824 4.35084 1.2192
    CHANNELS 3 Zrotation Xrotation Yrotation
    JOINT lThigh
    {
      OFFSET 0 -1.70687 -2.19456
      CHANNELS 3 Zrotation Xrotation Yrotation
      JOINT lShin
      {
        OFFSET 0 -36.8199 0.73152
        CHANNELS 3 Zrotation Xrotation Yrotation
        JOINT lFoot
        {
          OFFSET -0.73152 -45.1104 -5.12064
          CHANNELS 3 Zrotation Xrotation Yrotation
          End Site
          {
            OFFSET 1.1221 -3.69964 12.103
          }
        }
      }
    }
  }
}
MOTION
Frames:	4
Frame Time:	0.00833333
271.301 81.8801 -34.7658 -368.731 195.201 -358.027 -13.0081 12.1235 1.91152 3.37875 5.54355 -0.484902 8.94196 -2.55017 6.77955 -6.24918 5.86297 9.54937 -0.0 0.0 0.0 -0.0 0.0 0.0 2.01948e-13 -1.68569e-13 9.22858e-14 76.9103 31.3633 -2.55202 -13.2996 -6.40295 24.1552 -0.0253615 -4.54137 -0.639602 -1.92863e-09 8.23239e-10 -5.55506e-10 -3.33131e-09 1.42389e-09 -9.65554e-10 -1.92863e-09 8.23244e-10 -5.55516e-10 7.73091 5.47488 0.417314 -1.92864e-09 8.23245e-10 -5.55506e-10 2.90554 0.965183 0.102902 -1.92862e-09 8.23245e-10 -5.55505e-10 10.2786 0.731801 0.0259123 -1.92863e-09 8.23245e-10 -5.55503e-10 2.22167 -0.733487 -0.20892 2.01996e-13 -1.68569e-13 9.21367e-14 -51.491 42.1421 -38.7762 15.3293 -8.0787 -28.2691 4.09845e-05 -0.182803 0.0256914 -1.14851e-09 -2.78922e-09 -9.55273e-10 -1.98545e-09 -4.82093e-09 -1.65043e-09 -1.14852e-09 -2.78921e-09 -9.55264e-10 -7.73091 5.47488 -0.417314 -1.14851e-09 -2.78921e-09 -9.55264e-10 -2.90554 0.965183 -0.102902 -1.14851e-09 -2.78921e-09 -9.5527e-10 -10.2786 0.731801 -0.0259123 -1.14851e-09 -2.78921e-09 -9.5528e-10 -2.22167 -0.733487 0.20892 -2.03217e-16 0.0 -3.88251e-19 -19.8014 -31.9359 -0.140415 -0.0833803 14.8823 -0.32501 1.57697 -8.80648 10.4819 2.03217e-16 0.0 3.88251e-19 -16.3485 9.63354 -7.34173 0.121149 12.7759 0.142446 -0.33497 -17.7333 -1.83118
271.166 81.6559 -35.4628 -368.841 195.769 -357.851 -13.0729 12.1786 2.04793 3.40781 5.59388 -0.450927 8.87043 -2.53354 6.68617 -5.85206 5.68203 9.3851 -0.0 0.0 0.0 -0.0 0.0 0.0 1.33407e-13 -1.3321e-13 1.4421e-13 76.7417 31.0799 -2.26162 -13.1867 -6.31735 23.9302 -0.0207534 -4.18725 -0.589485 -1.57886e-09 4.61076e-10 -2.41243e-11 -2.72785e-09 7.97672e-10 -4.60463e-11 -1.57886e-09 4.6108e-10 -2.41344e-11 7.73091 5.47488 0.417314 -1.57886e-09 4.61081e-10 -2.41253e-11 2.90554 0.965183 0.102902 -1.57885e-09 4.61081e-10 -2.41234e-11 10.2786 0.731801 0.0259123 -1.57886e-09 4.61082e-10 -2.41208e-11 2.22167 -0.733487 -0.20892 1.33432e-13 -1.33212e-13 1.44075e-13 -51.0706 42.7657 -39.1138 15.5736 -8.29769 -28.7756 0.000328545 -0.979685 0.13765 -9.76716e-10 -2.3064e-09 -1.05719e-09 -1.68814e-09 -3.98567e-09 -1.8277e-09 -9.76719e-10 -2.30639e-09 -1.05718e-09 -7.73091 5.47488 -0.417314 -9.76713e-10 -2.30639e-09 -1.05718e-09 -2.90554 0.965183 -0.102902 -9.76718e-10 -2.30639e-09 -1.05719e-09 -10.2786 0.731801 -0.0259123 -9.76712e-10 -2.30639e-09 -1.05719e-09 -2.22167 -0.733487 0.20892 -2.03217e-16 0.0 -3.88251e-19 -19.9391 -31.941 -0.219161 -0.0854062 14.8843 -0.338351 1.60093 -8.53804 10.836 2.03217e-16 0.0 3.88251e-19 -16.372 9.93837 -7.38829 0.127235 13.2435 0.142057 -0.480474 -18.0906 -2.15754
271.052 81.4514 -36.1712 -368.907 196.406 -357.695 -13.1119 12.2098 2.12777 3.53924 5.63308 -0.430151 8.74092 -2.44688 6.58144 -5.56841 5.45254 9.22793 -0.0 0.0 0.0 -0.0 0.0 0.0 -1.38938e-14 -6.85785e-14 2.45341e-13 76.527 30.5814 -1.93873 -13.0399 -6.20639 23.6394 -0.0145115 -3.58685 -0.504681 -6.21885e-10 -2.83254e-10 1.03498e-09 -1.07622e-09 -4.89221e-10 1.78734e-09 -6.21878e-10 -2.83251e-10 1.03497e-09 7.73091 5.47488 0.417314 -6.21888e-10 -2.8325e-10 1.03498e-09 2.90554 0.965183 0.102902 -6.21875e-10 -2.83249e-10 1.03498e-09 10.2786 0.731801 0.0259123 -6.21886e-10 -2.83246e-10 1.03499e-09 2.22167 -0.733487 -0.20892 -1.3909e-14 -6.85833e-14 2.4521e-13 -50.7299 43.4216 -39.3893 15.8213 -8.52398 -29.2919 0.00263399 -1.85051 0.260084 -4.43294e-10 -9.76228e-10 -1.04073e-09 -7.64882e-10 -1.68514e-09 -1.80174e-09 -4.43295e-10 -9.76224e-10 -1.04072e-09 -7.73091 5.47488 -0.417314 -4.4329e-10 -9.76221e-10 -1.04072e-09 -2.90554 0.965183 -0.102902 -4.43299e-10 -9.76221e-10 -1.04073e-09 -10.2786 0.731801 -0.0259123 -4.43292e-10 -9.76221e-10 -1.04073e-09 -2.22167 -0.733487 0.20892 -2.03217e-16 0.0 -3.88251e-19 -19.8575 -31.9047 0.0852012 -0.0862065 15.0638 -0.347473 1.51082 -8.21563 10.5966 2.03217e-16 0.0 3.88251e-19 -16.3096 10.1707 -7.40038 0.133876 13.7856 0.137463 -0.647234 -18.4408 -2.52815
270.908 81.2828 -36.9665 -369.111 196.897 -357.656 -13.1063 12.2559 2.13486 3.71999 5.66729 -0.428805 8.59304 -2.33424 6.50213 -5.35905 5.21912 9.13221 -0.0 0.0 0.0 -0.0 0.0 0.0 -1.65567e-13 1.27682e-16 3.23218e-13 76.2493 30.1434 -1.5754 -12.8905 -6.09387 23.3459 -0.00984236 -2.95112 -0.415071 4.92848e-10 -1.02392e-09 2.05077e-09 8.4817e-10 -1.7697e-09 3.54602e-09 4.92856e-10 -1.02392e-09 2.05076e-09 7.73091 5.47488 0.417314 4.92846e-10 -1.02392e-09 2.05077e-09 2.90554 0.965183 0.102902 4.92857e-10 -1.02392e-09 2.05077e-09 10.2786 0.731801 0.0259123 4.92846e-10 -1.02391e-09 2.05077e-09 2.22167 -0.733487 -0.20892 -1.65626e-13 1.2006e-16 3.23083e-13 -50.6059 43.9867 -39.5089 16.0442 -8.72992 -29.762 0.00729644 -2.63114 0.369988 2.26989e-10 5.95466e-10 -8.74254e-10 3.94805e-10 1.03253e-09 -1.51609e-09 2.2699e-10 5.9547e-10 -8.74236e-10 -7.73091 5.47488 -0.417314 2.26994e-10 5.95473e-10 -8.74246e-10 -2.90554 0.965183 -0.102902 2.26982e-10 5.95473e-10 -8.74248e-10 -10.2786 0.731801 -0.0259123 2.2699e-10 5.95475e-10 -8.74247e-10 -2.22167 -0.733487 0.20892 -2.03217e-16 0.0 -3.88251e-19 -19.631 -31.8324 0.675622 -0.0860656 15.3762 -0.353226 1.33737 -7.66832 10.059 2.03217e-16 0.0 3.88251e-19 -16.1864 10.3939 -7.42268 0.140248 14.3683 0.12893 -0.802116 -18.7856 -2.86065
